<svg width="100pt" height="100pt" version="1.1" viewBox="0 0 100 100" xmlns="http://www.w3.org/2000/svg">
 <g>
  <path d="m45.375 71.875c-2.25 0-4.125-1.75-4.125-3.875v-13.875c0-2.125 1.875-3.875 4.125-3.875 0.625 0 1.25 0.125 1.875 0.5l13.375 6.875c1.25 0.625 2 1.875 2 3.375s-0.75 2.75-2.125 3.5l-13.25 7c-0.625 0.125-1.25 0.375-1.875 0.375zm0-19.125c-0.75 0-1.625 0.5-1.625 1.375v13.875c0 0.75 0.875 1.375 1.625 1.375 0.25 0 0.5 0 0.625-0.125l13.25-7c0.5-0.25 0.75-0.75 0.75-1.25 0-0.25-0.125-0.75-0.625-1.125l-13.375-6.875c-0.25-0.25-0.5-0.25-0.625-0.25z"/>
  <path d="m82.375 88.75h-63.5c-2.125 0-3.875-1.75-3.875-3.875v-49.75c0-2.125 1.75-3.875 3.875-3.875h63.5c2.125 0 3.875 1.75 3.875 3.875v49.75c0 2.125-1.75 3.875-3.875 3.875zm-63.5-55c-0.75 0-1.375 0.625-1.375 1.375v49.75c0 0.75 0.625 1.375 1.375 1.375h63.5c0.75 0 1.375-0.625 1.375-1.375v-49.75c0-0.75-0.625-1.375-1.375-1.375z"/>
  <path d="m46 29.375c0-0.125-0.125-0.25-0.25-0.25l-9.25-2.5c-0.25 0-0.375 0-0.5 0.125 0 0-0.125 0.25-0.125 0.375l0.375 1.5-2.5 0.5-0.375-1.5c-0.25-1 0.125-2 0.875-2.75s1.875-1 2.875-0.75l9.25 2.5c1 0.25 1.875 1.125 2 2.25z"/>
  <path d="m61.25 28.25l-3.75-17.25c-0.125-0.375-0.25-0.625-0.625-0.875-0.25-0.125-0.625-0.25-1-0.125l-37.75 8.125c-0.375 0.125-0.625 0.25-0.875 0.625s-0.25 0.625-0.125 1l1.5 7-2.5 0.5-1.5-7c-0.5-2.125 0.875-4.125 3-4.625l37.75-8.125c1-0.25 2 0 2.875 0.5s1.5 1.375 1.625 2.375l3.75 17.375z"/>
 </g>
</svg>
